<svg xmlns="http://www.w3.org/2000/svg" viewBox="0 0 30 14"><title>herbe</title><g id="Layer_2" data-name="Layer 2"><g id="Layer_1-2" data-name="Layer 1"><path d="M30,13.69a114.75,114.75,0,0,1-16.18,0,79.65,79.65,0,0,0-13.76,0V5.46H30Z" style="fill:#665132"/><path d="M0,3.68c0-.54,0-.45,0,0Z" style="fill:#5a8441"/><path d="M29.94,3.81v0h0a2.29,2.29,0,0,1,0-.24c0-.13-.07-.18-.11-.28a3.82,3.82,0,0,0-.13-.37,1.4,1.4,0,0,0-.42-.45l-.31-.25c-.09-.07-.09-.06-.16,0s-.11.28-.16.42a1.43,1.43,0,0,1-.14.31q0,.09-.09.08l-.16-.16A7.36,7.36,0,0,1,27.44,2c-.14-.19-.26-.39-.4-.58q-.11,0-.11.19a4.18,4.18,0,0,1-.38.68c-.07.1-.32.45-.48.49s-.27-.19-.34-.31-.29-.66-.54-.77c-.56.51-1,1.35-1.7,1.59a.88.88,0,0,1-.13-.41,3.14,3.14,0,0,0-.38-1,9.39,9.39,0,0,0-.58-.76L21.82.45a1.72,1.72,0,0,0-.37-.35,3.31,3.31,0,0,1,0,1.06,2.1,2.1,0,0,1-.15.65c-.11.24-.23.5-.35.74s-.19.36-.35.39-.19-.06-.27-.12A1,1,0,0,1,20,2.07c-.2.3-.44.57-.65.86-.1.14-.23.3-.34.43a4.45,4.45,0,0,0-1.25-1.21c-.45-.28-1-.4-1.44-.68a1.64,1.64,0,0,0,0,.57,1.86,1.86,0,0,1,0,.65c-.07.21-.3.59-.53.64s-.15,0-.22-.1a7.57,7.57,0,0,1-.45-.68,4.74,4.74,0,0,0-.93-.94.87.87,0,0,1-.09.28c-.08.18-.14.38-.23.56a5.17,5.17,0,0,1-.44.72c-.07.1-.27.44-.43.4s-.11-.08-.18-.14A7.65,7.65,0,0,0,12,2.82a6.31,6.31,0,0,0-1.26-.67A1.5,1.5,0,0,0,10,2a.53.53,0,0,0,0,.25,1.31,1.31,0,0,1,0,.35c0,.16,0,.31,0,.47s0,.19,0,.25-.1-.11-.16-.16-.37-.32-.54-.5l-.54-.57c-.08-.08-.2-.25-.32-.26s-.12.08-.16.14a2,2,0,0,1-.29.4,3.37,3.37,0,0,0-.65.79c-.26-.08-.37-.42-.47-.65s-.2-.36-.27-.56a2.49,2.49,0,0,1-.16-.62,1.31,1.31,0,0,1,0-.41.23.23,0,0,0,0-.13C6.41.8,6.34,1,6.32,1a6.52,6.52,0,0,0-.18.66,4,4,0,0,1-.38,1A1.22,1.22,0,0,1,5.53,3s-.13.15-.19.15S5.07,2.95,5,2.89a1.85,1.85,0,0,1-.47-.48L4.23,2A2.2,2.2,0,0,0,4,1.74c-.11.07,0,.24,0,.33a1.6,1.6,0,0,1-.12.64A2.27,2.27,0,0,1,3.82,3a1.66,1.66,0,0,1-.15.18c-.06.09-.1.08-.21.08a.49.49,0,0,1-.24,0,.89.89,0,0,1-.12-.1A1.72,1.72,0,0,0,2.82,3c-.24-.11-.48-.22-.71-.34L1.77,2.4c-.07,0-.16-.15-.24-.16s.11.24.16.31A.82.82,0,0,1,1.85,3a1.3,1.3,0,0,1,0,.4c-.05.16-.1,0-.16,0L1.28,3a1.2,1.2,0,0,0-.19-.13,1,1,0,0,1-.25-.17.7.7,0,0,1-.06.37l-.07.12c0,.07-.1.12-.14.18s-.1.18-.16.27a.51.51,0,0,1-.12.12H0V12a79.65,79.65,0,0,1,13.76,0,114.75,114.75,0,0,0,16.18,0V4.13A.7.7,0,0,0,29.94,3.81Z" style="fill:#5a8441"/><path d="M21.28,0a.28.28,0,0,1,.17,0s0-.06,0-.09S21.34.08,21.28,0Z" style="fill:#5a8441"/><path d="M29.35,8a1.31,1.31,0,0,1-.13.05h-.12a1,1,0,0,1-.33,0h-.55a2,2,0,0,1-.33,0A1.86,1.86,0,0,0,27.64,8c-.19,0-.39,0-.57,0s-.47.13-.72.14-.44-.07-.66-.07S25.21,8,25,8c-.63,0-1.24-.15-1.88-.13h0a1.42,1.42,0,0,0-.54.07,4.76,4.76,0,0,1-.86.2,12.2,12.2,0,0,1-2,.24,3.61,3.61,0,0,1-.93-.06,5.27,5.27,0,0,1-.58-.2,1.77,1.77,0,0,0-.7-.06,3.06,3.06,0,0,0-.75,0c-.18,0-.35.13-.52.18a7.23,7.23,0,0,1-.71.18,2.22,2.22,0,0,1-.74,0,5,5,0,0,0-.73,0c-.52,0-1-.13-1.54-.13s-.89,0-1.33,0c-.18,0-.34.07-.52.07a2.41,2.41,0,0,0-.52.06A5.4,5.4,0,0,1,9,8.55a4.21,4.21,0,0,1-1-.16c-.31-.07-.64,0-.94-.1a8.59,8.59,0,0,0-1.67-.06c-.34,0-.65.1-1,.13L4,8.42a1,1,0,0,1-.36,0,5.85,5.85,0,0,0-.86,0,1.4,1.4,0,0,1-.34,0c-.11,0-.22-.08-.32-.1s-.16,0-.25,0l-.12-.05c-.11,0-.19-.08-.3-.11L1.21,8c-.1,0-.21,0-.3,0S.84,8,.79,8,.7,8,.66,8A.2.2,0,0,1,.52,7.9H.06V12a79.45,79.45,0,0,1,13.7,0,114.75,114.75,0,0,0,16.18,0V7.9h-.3Z" style="fill:#476633"/></g></g></svg>