<svg xmlns="http://www.w3.org/2000/svg" viewBox="0 0 115 120"><title>terre</title><g id="Layer_2" data-name="Layer 2"><g id="Layer_1-2" data-name="Layer 1"><rect width="115" height="120" style="fill:#876c41"/><ellipse cx="28.31" cy="26.5" rx="9.49" ry="4.5" style="fill:#d1b77c"/><ellipse cx="42.3" cy="50" rx="5.5" ry="4" style="fill:#d1b77c"/><ellipse cx="27.81" cy="86.5" rx="7" ry="5.5" style="fill:#d1b77c"/><ellipse cx="94.27" cy="59" rx="3.5" ry="4" style="fill:#d1b77c"/><ellipse cx="71.28" cy="44" rx="2.5" ry="2" style="fill:#d1b77c"/><ellipse cx="87.27" cy="23.5" rx="6.5" ry="6.5" style="fill:#d1b77c"/><ellipse cx="82.28" cy="88" rx="7.49" ry="7" style="fill:#d1b77c"/><circle cx="52.3" cy="106.5" r="2.5" style="fill:#d1b77c"/><path d="M36.33,24.1a2.45,2.45,0,0,1,.48,1.4c0,2.49-4.25,4.5-9.49,4.5-3.38,0-6.33-.84-8-2.1,1.24,1.8,4.81,3.1,9,3.1,5.24,0,9.49-2,9.49-4.5A3.12,3.12,0,0,0,36.33,24.1Z" style="fill:#99855c"/><path d="M46.19,47.17A3.15,3.15,0,0,1,46.8,49c0,2.21-2.46,4-5.5,4a6.65,6.65,0,0,1-3.88-1.17A6,6,0,0,0,42.3,54c3,0,5.5-1.79,5.5-4A3.55,3.55,0,0,0,46.19,47.17Z" style="fill:#99855c"/><path d="M32.76,82.61a4.65,4.65,0,0,1,1.05,2.89c0,3-3.13,5.5-7,5.5a8,8,0,0,1-4.94-1.61A7.55,7.55,0,0,0,27.81,92c3.86,0,7-2.46,7-5.5A5,5,0,0,0,32.76,82.61Z" style="fill:#99855c"/><path d="M96,55.56A4.33,4.33,0,0,1,96.77,58a3.77,3.77,0,0,1-3.5,4,3.14,3.14,0,0,1-1.75-.56A3.35,3.35,0,0,0,94.27,63a3.77,3.77,0,0,0,3.5-4A4.11,4.11,0,0,0,96,55.56Z" style="fill:#99855c"/><path d="M72.62,42.32a1.64,1.64,0,0,1,.16.68,2.29,2.29,0,0,1-2.5,2,2.94,2.94,0,0,1-1.34-.32A2.52,2.52,0,0,0,71.28,46a2.29,2.29,0,0,0,2.5-2A1.94,1.94,0,0,0,72.62,42.32Z" style="fill:#99855c"/><path d="M91.34,18.43a6.49,6.49,0,0,1-9.13,9.13,6.49,6.49,0,1,0,9.13-9.13Z" style="fill:#99855c"/><path d="M87.22,82.75A6.67,6.67,0,0,1,88.77,87a7.26,7.26,0,0,1-7.49,7,7.77,7.77,0,0,1-4.95-1.75A7.67,7.67,0,0,0,82.28,95a7.26,7.26,0,0,0,7.49-7A6.79,6.79,0,0,0,87.22,82.75Z" style="fill:#99855c"/><path d="M53.48,104.31a2.47,2.47,0,0,1,.31,1.19,2.5,2.5,0,0,1-2.5,2.5,2.47,2.47,0,0,1-1.19-.31,2.49,2.49,0,1,0,3.37-3.37Z" style="fill:#99855c"/></g></g></svg>