<svg xmlns="http://www.w3.org/2000/svg" viewBox="0 0 115 120"><title>sable-3</title><g id="Layer_2" data-name="Layer 2"><g id="Layer_1-2" data-name="Layer 1"><rect width="115" height="120" style="fill:#dd4b5d"/><path d="M18.18,56.4c7.18-9.29,12.33-20,17.42-30.54.78-1.62,5.19-9.13,3.82-10.71-1.82-2.1-5.35,3.38-5.93,4.32a130.9,130.9,0,0,0-11.64,23A72.86,72.86,0,0,0,18.18,56.4Z" style="fill:#7f2f44"/><path d="M78,118.08c5-10.63,7.71-22.16,10.39-33.59.41-1.75,3.09-10,1.41-11.29-2.23-1.66-4.49,4.46-4.85,5.51a130.9,130.9,0,0,0-6.37,25A72.86,72.86,0,0,0,78,118.08Z" style="fill:#7f2f44"/><path d="M31.09,114c4.43-8.3,7.07-17.42,9.68-26.47.4-1.38,2.88-7.91,1.59-9-1.72-1.42-3.78,3.38-4.11,4.21a104.91,104.91,0,0,0-6.11,19.76A58.39,58.39,0,0,0,31.09,114Z" style="fill:#7f2f44"/><path d="M61,73C69.43,64.8,76,55,82.56,45.2c1-1.49,6.43-8.31,5.29-10.07-1.5-2.34-5.77,2.59-6.48,3.45A130.9,130.9,0,0,0,66.61,59.75,72.86,72.86,0,0,0,61,73Z" style="fill:#7f2f44"/><path d="M25.18,70.81a69.28,69.28,0,0,0,7.16-12.55c.32-.66,2.13-3.75,1.57-4.4-.75-.86-2.2,1.39-2.44,1.78A53.78,53.78,0,0,0,26.7,65.1,29.93,29.93,0,0,0,25.18,70.81Z" style="fill:#7f2f44"/><path d="M61,104.07a69.28,69.28,0,0,0,7.16-12.55c.32-.66,2.13-3.75,1.57-4.4-.75-.86-2.2,1.39-2.44,1.78a53.78,53.78,0,0,0-4.78,9.46A29.93,29.93,0,0,0,61,104.07Z" style="fill:#7f2f44"/><path d="M48.43,118.15a69.28,69.28,0,0,0,7.16-12.55c.32-.66,2.13-3.75,1.57-4.4-.75-.86-2.2,1.39-2.44,1.78a53.78,53.78,0,0,0-4.78,9.46A29.93,29.93,0,0,0,48.43,118.15Z" style="fill:#7f2f44"/><path d="M63.28,116.66a69.28,69.28,0,0,0,7.16-12.55c.32-.66,2.13-3.75,1.57-4.4-.75-.86-2.2,1.39-2.44,1.78a53.78,53.78,0,0,0-4.78,9.46A29.93,29.93,0,0,0,63.28,116.66Z" style="fill:#7f2f44"/><path d="M56.45,64.63a69.28,69.28,0,0,0,2.18-14.28c.06-.73.65-4.27-.11-4.67-1-.54-1.55,2.08-1.64,2.53a53.78,53.78,0,0,0-1.07,10.55A29.93,29.93,0,0,0,56.45,64.63Z" style="fill:#7f2f44"/><path d="M90.46,48.62a69.28,69.28,0,0,0,11.65-8.54c.56-.48,3.48-2.55,3.23-3.38-.33-1.09-2.57.37-2.95.63A53.78,53.78,0,0,0,94.17,44,29.93,29.93,0,0,0,90.46,48.62Z" style="fill:#7f2f44"/><path d="M8.6,24.76a69.28,69.28,0,0,0,10.58-9.84c.5-.54,3.16-2.94,2.81-3.73-.45-1-2.51.67-2.86,1a53.78,53.78,0,0,0-7.39,7.6A29.93,29.93,0,0,0,8.6,24.76Z" style="fill:#7f2f44"/><path d="M6.14,106.2a69.28,69.28,0,0,0,11.78-8.36c.57-.47,3.52-2.5,3.28-3.33-.31-1.1-2.58.33-3,.58a53.78,53.78,0,0,0-8.33,6.56A29.93,29.93,0,0,0,6.14,106.2Z" style="fill:#7f2f44"/><path d="M12.35,82.46a69.28,69.28,0,0,0-1.48-14.37c-.13-.73-.45-4.29-1.28-4.49-1.11-.27-1,2.41-.95,2.86a53.78,53.78,0,0,0,1.62,10.48A29.93,29.93,0,0,0,12.35,82.46Z" style="fill:#7f2f44"/><path d="M48.43,21.56A69.28,69.28,0,0,0,60,13c.56-.48,3.47-2.57,3.21-3.39-.33-1.09-2.57.38-2.95.64a53.78,53.78,0,0,0-8.19,6.73A29.93,29.93,0,0,0,48.43,21.56Z" style="fill:#7f2f44"/><path d="M98.08,23.74a69.28,69.28,0,0,0,3.61-14c.13-.72,1.07-4.18.36-4.66-.95-.64-1.76,1.92-1.89,2.35A53.78,53.78,0,0,0,98,17.83,29.93,29.93,0,0,0,98.08,23.74Z" style="fill:#7f2f44"/><path d="M97.29,76.52A69.28,69.28,0,0,0,104.45,64c.32-.66,2.13-3.75,1.57-4.4-.75-.86-2.2,1.39-2.44,1.78a53.78,53.78,0,0,0-4.78,9.46A29.93,29.93,0,0,0,97.29,76.52Z" style="fill:#7f2f44"/><path d="M23.22,86.65c5.25-4,9.6-9,13.9-14,.66-.76,4.15-4.18,3.64-5.24-.68-1.4-3.39,1-3.84,1.47a73.41,73.41,0,0,0-9.67,10.77A40.86,40.86,0,0,0,23.22,86.65Z" style="fill:#7f2f44"/><path d="M70.34,81.07c5.25-4,9.6-9,13.9-14,.66-.76,4.15-4.18,3.64-5.24-.68-1.4-3.39,1-3.84,1.47a73.41,73.41,0,0,0-9.67,10.77A40.86,40.86,0,0,0,70.34,81.07Z" style="fill:#7f2f44"/><path d="M45.44,104.81c4-5.21,6.91-11.19,9.77-17.13.44-.91,2.91-5.12,2.14-6-1-1.18-3,1.89-3.33,2.42A73.41,73.41,0,0,0,47.5,97,40.86,40.86,0,0,0,45.44,104.81Z" style="fill:#7f2f44"/><path d="M71.41,35.59c2.7-6,4.11-12.5,5.5-18.94.21-1,1.64-5.66.68-6.34-1.27-.91-2.48,2.54-2.67,3.13a73.41,73.41,0,0,0-3.33,14.08A40.86,40.86,0,0,0,71.41,35.59Z" style="fill:#7f2f44"/><path d="M94.08,115c4-5.21,6.91-11.19,9.77-17.13.44-.91,2.91-5.12,2.14-6-1-1.18-3,1.89-3.33,2.42a73.41,73.41,0,0,0-6.53,12.92A40.86,40.86,0,0,0,94.08,115Z" style="fill:#7f2f44"/><path d="M38,49c5.61-3.45,10.43-8,15.21-12.55.73-.69,4.54-3.75,4.13-4.86-.53-1.46-3.48.71-4,1.09a73.41,73.41,0,0,0-10.68,9.76A40.86,40.86,0,0,0,38,49Z" style="fill:#7f2f44"/></g></g></svg>