<svg xmlns="http://www.w3.org/2000/svg" viewBox="0 0 115 120"><title>sable-1</title><g id="Layer_2" data-name="Layer 2"><g id="Layer_1-2" data-name="Layer 1"><rect width="115" height="120" style="fill:#cebc88"/><circle cx="4.07" cy="7.12" r="1.8" style="fill:#998b67"/><circle cx="11.85" cy="10.71" r="1.2" style="fill:#998b67"/><circle cx="7.36" cy="18.8" r="1.5" style="fill:#998b67"/><circle cx="24.73" cy="6.82" r="1.5" style="fill:#998b67"/><circle cx="26.23" cy="16.7" r="1.2" style="fill:#998b67"/><circle cx="18.44" cy="22.69" r="1.2" style="fill:#998b67"/><circle cx="37.62" cy="17.9" r="1.2" style="fill:#998b67"/><circle cx="42.11" cy="9.81" r="0.3" style="fill:#998b67"/><circle cx="33.72" cy="23.59" r="0.9" style="fill:#998b67"/><circle cx="34.32" cy="11.01" r="0.9" style="fill:#998b67"/><circle cx="54.39" cy="10.11" r="0.6" style="fill:#998b67"/><circle cx="46" cy="15.5" r="1.2" style="fill:#998b67"/><circle cx="49.3" cy="8.61" r="0.9" style="fill:#998b67"/><circle cx="49.3" cy="28.98" r="0.9" style="fill:#998b67"/><circle cx="9.16" cy="40.37" r="2.1" style="fill:#998b67"/><ellipse cx="25.03" cy="34.97" ry="0.9" style="fill:#998b67"/><circle cx="32.52" cy="46.96" r="0.9" style="fill:#998b67"/><circle cx="13.95" cy="31.98" r="0.9" style="fill:#998b67"/><circle cx="21.44" cy="40.07" r="0.6" style="fill:#998b67"/><circle cx="11.85" cy="49.05" r="1.2" style="fill:#998b67"/><circle cx="8.26" cy="58.04" r="2.4" style="fill:#998b67"/><circle cx="23.84" cy="51.45" r="1.2" style="fill:#998b67"/><circle cx="37.02" cy="37.67" r="0.6" style="fill:#998b67"/><circle cx="54.99" cy="45.46" r="0.6" style="fill:#998b67"/><circle cx="58.88" cy="31.98" r="0.9" style="fill:#998b67"/><circle cx="58.28" cy="24.79" r="0.9" style="fill:#998b67"/><circle cx="59.78" cy="16.7" r="1.2" style="fill:#998b67"/><circle cx="48.4" cy="22.69" r="1.8" style="fill:#998b67"/><circle cx="42.11" cy="34.38" r="0.3" style="fill:#998b67"/><circle cx="45.4" cy="43.66" r="1.2" style="fill:#998b67"/><circle cx="25.03" cy="31.68" r="1.8" style="fill:#998b67"/><circle cx="39.41" cy="29.28" r="0.6" style="fill:#998b67"/><circle cx="42.11" cy="51.15" r="0.9" style="fill:#998b67"/><circle cx="23.84" cy="61.03" r="1.2" style="fill:#998b67"/><circle cx="37.32" cy="60.14" r="0.9" style="fill:#998b67"/><circle cx="16.05" cy="65.83" r="0.6" style="fill:#998b67"/><circle cx="1.37" cy="66.73" r="0.9" style="fill:#998b67"/><circle cx="4.67" cy="51.45" r="1.2" style="fill:#998b67"/><circle cx="7.06" cy="29.28" r="1.2" style="fill:#998b67"/><circle cx="1.97" cy="42.16" r="1.5" style="fill:#998b67"/><ellipse cx="63.08" cy="46.66" rx="0.9" style="fill:#998b67"/><circle cx="60.68" cy="57.14" r="1.5" style="fill:#998b67"/><circle cx="53.79" cy="53.85" r="1.2" style="fill:#998b67"/><circle cx="65.17" cy="50.25" r="1.2" style="fill:#998b67"/><circle cx="49.9" cy="63.73" r="1.5" style="fill:#998b67"/><circle cx="62.78" cy="62.83" r="0.6" style="fill:#998b67"/><circle cx="61.28" cy="7.42" r="0.3" style="fill:#998b67"/><circle cx="63.68" cy="2.02" r="0.9" style="fill:#998b67"/><circle cx="39.41" cy="5.32" r="1.8" style="fill:#998b67"/><circle cx="56.49" cy="2.02" r="0.9" style="fill:#998b67"/><circle cx="29.83" cy="3.52" r="0.6" style="fill:#998b67"/><circle cx="13.65" cy="2.32" r="0.6" style="fill:#998b67"/><circle cx="17.85" cy="10.11" r="0.6" style="fill:#998b67"/><circle cx="6.16" cy="1.42" r="0.3" style="fill:#998b67"/><circle cx="62.48" cy="38.57" r="0.9" style="fill:#998b67"/><ellipse cx="19.04" cy="31.68" rx="0.6" style="fill:#998b67"/><circle cx="28.03" cy="42.46" r="1.2" style="fill:#998b67"/><circle cx="32.52" cy="55.94" r="2.1" style="fill:#998b67"/><circle cx="75.64" cy="7.12" r="1.8" style="fill:#998b67"/><circle cx="83.43" cy="10.71" r="1.2" style="fill:#998b67"/><circle cx="78.93" cy="18.8" r="1.5" style="fill:#998b67"/><circle cx="96.31" cy="6.82" r="1.5" style="fill:#998b67"/><circle cx="97.81" cy="16.7" r="1.2" style="fill:#998b67"/><circle cx="90.02" cy="22.69" r="1.2" style="fill:#998b67"/><circle cx="109.19" cy="17.9" r="1.2" style="fill:#998b67"/><circle cx="113.68" cy="9.81" r="0.3" style="fill:#998b67"/><circle cx="105.29" cy="23.59" r="0.9" style="fill:#998b67"/><circle cx="105.89" cy="11.01" r="0.9" style="fill:#998b67"/><circle cx="80.73" cy="40.37" r="2.1" style="fill:#998b67"/><ellipse cx="96.61" cy="34.97" ry="0.9" style="fill:#998b67"/><circle cx="104.1" cy="46.96" r="0.9" style="fill:#998b67"/><circle cx="85.52" cy="31.98" r="0.9" style="fill:#998b67"/><circle cx="93.01" cy="40.07" r="0.6" style="fill:#998b67"/><circle cx="83.43" cy="49.05" r="1.2" style="fill:#998b67"/><circle cx="79.83" cy="58.04" r="2.4" style="fill:#998b67"/><circle cx="95.41" cy="51.45" r="1.2" style="fill:#998b67"/><circle cx="108.59" cy="37.67" r="0.6" style="fill:#998b67"/><circle cx="113.68" cy="34.38" r="0.3" style="fill:#998b67"/><circle cx="96.61" cy="31.68" r="1.8" style="fill:#998b67"/><circle cx="110.99" cy="29.28" r="0.6" style="fill:#998b67"/><circle cx="113.68" cy="51.15" r="0.9" style="fill:#998b67"/><circle cx="95.41" cy="61.03" r="1.2" style="fill:#998b67"/><circle cx="108.89" cy="60.14" r="0.9" style="fill:#998b67"/><circle cx="87.62" cy="65.83" r="0.6" style="fill:#998b67"/><circle cx="72.94" cy="66.73" r="0.9" style="fill:#998b67"/><circle cx="76.24" cy="51.45" r="1.2" style="fill:#998b67"/><circle cx="78.63" cy="29.28" r="1.2" style="fill:#998b67"/><circle cx="71.45" cy="32.88" r="1.2" style="fill:#998b67"/><circle cx="73.54" cy="42.16" r="1.5" style="fill:#998b67"/><circle cx="110.99" cy="5.32" r="1.8" style="fill:#998b67"/><circle cx="101.4" cy="3.52" r="0.6" style="fill:#998b67"/><circle cx="85.22" cy="2.32" r="0.6" style="fill:#998b67"/><circle cx="89.42" cy="10.11" r="0.6" style="fill:#998b67"/><circle cx="77.74" cy="1.42" r="0.3" style="fill:#998b67"/><ellipse cx="90.62" cy="31.68" rx="0.6" style="fill:#998b67"/><circle cx="99.6" cy="42.46" r="1.2" style="fill:#998b67"/><circle cx="104.1" cy="55.94" r="2.1" style="fill:#998b67"/><circle cx="6.12" cy="69.74" r="1.8" style="fill:#998b67"/><circle cx="13.91" cy="73.34" r="1.2" style="fill:#998b67"/><circle cx="9.41" cy="81.42" r="1.5" style="fill:#998b67"/><circle cx="26.79" cy="69.44" r="1.5" style="fill:#998b67"/><circle cx="28.28" cy="79.33" r="1.2" style="fill:#998b67"/><circle cx="20.5" cy="85.32" r="1.2" style="fill:#998b67"/><circle cx="39.67" cy="80.52" r="1.2" style="fill:#998b67"/><circle cx="44.16" cy="72.44" r="0.3" style="fill:#998b67"/><circle cx="35.77" cy="86.22" r="0.9" style="fill:#998b67"/><circle cx="36.37" cy="73.64" r="0.9" style="fill:#998b67"/><circle cx="56.44" cy="72.74" r="0.6" style="fill:#998b67"/><circle cx="48.05" cy="78.13" r="1.2" style="fill:#998b67"/><circle cx="51.35" cy="71.24" r="0.9" style="fill:#998b67"/><circle cx="51.35" cy="91.61" r="0.9" style="fill:#998b67"/><circle cx="11.21" cy="102.99" r="2.1" style="fill:#998b67"/><ellipse cx="27.09" cy="97.6" ry="0.9" style="fill:#998b67"/><circle cx="34.57" cy="109.58" r="0.9" style="fill:#998b67"/><circle cx="16" cy="94.6" r="0.9" style="fill:#998b67"/><circle cx="23.49" cy="102.69" r="0.6" style="fill:#998b67"/><circle cx="13.91" cy="111.68" r="1.2" style="fill:#998b67"/><circle cx="25.89" cy="114.07" r="1.2" style="fill:#998b67"/><circle cx="39.07" cy="100.3" r="0.6" style="fill:#998b67"/><circle cx="57.04" cy="108.08" r="0.6" style="fill:#998b67"/><circle cx="60.94" cy="94.6" r="0.9" style="fill:#998b67"/><circle cx="60.34" cy="87.41" r="0.9" style="fill:#998b67"/><circle cx="61.83" cy="79.33" r="1.2" style="fill:#998b67"/><circle cx="50.45" cy="85.32" r="1.8" style="fill:#998b67"/><circle cx="44.16" cy="97" r="0.3" style="fill:#998b67"/><circle cx="47.46" cy="106.29" r="1.2" style="fill:#998b67"/><circle cx="27.09" cy="94.3" r="1.8" style="fill:#998b67"/><circle cx="41.46" cy="91.91" r="0.6" style="fill:#998b67"/><circle cx="44.16" cy="113.77" r="0.9" style="fill:#998b67"/><circle cx="6.72" cy="114.07" r="1.2" style="fill:#998b67"/><circle cx="9.11" cy="91.91" r="1.2" style="fill:#998b67"/><circle cx="1.92" cy="95.5" r="1.2" style="fill:#998b67"/><circle cx="4.02" cy="104.79" r="1.5" style="fill:#998b67"/><ellipse cx="65.13" cy="109.28" rx="0.9" style="fill:#998b67"/><circle cx="55.84" cy="116.47" r="1.2" style="fill:#998b67"/><circle cx="67.23" cy="112.88" r="1.2" style="fill:#998b67"/><circle cx="63.33" cy="70.04" r="0.3" style="fill:#998b67"/><circle cx="65.73" cy="64.65" r="0.9" style="fill:#998b67"/><circle cx="41.46" cy="67.94" r="1.8" style="fill:#998b67"/><circle cx="58.54" cy="64.65" r="0.9" style="fill:#998b67"/><circle cx="31.88" cy="66.15" r="0.6" style="fill:#998b67"/><circle cx="15.7" cy="64.95" r="0.6" style="fill:#998b67"/><circle cx="19.9" cy="72.74" r="0.6" style="fill:#998b67"/><circle cx="8.21" cy="64.05" r="0.3" style="fill:#998b67"/><circle cx="64.53" cy="101.19" r="0.9" style="fill:#998b67"/><ellipse cx="21.1" cy="94.3" rx="0.6" style="fill:#998b67"/><circle cx="30.08" cy="105.09" r="1.2" style="fill:#998b67"/><circle cx="77.69" cy="69.74" r="1.8" style="fill:#998b67"/><circle cx="85.48" cy="73.34" r="1.2" style="fill:#998b67"/><circle cx="80.99" cy="81.42" r="1.5" style="fill:#998b67"/><circle cx="98.36" cy="69.44" r="1.5" style="fill:#998b67"/><circle cx="99.86" cy="79.33" r="1.2" style="fill:#998b67"/><circle cx="92.07" cy="85.32" r="1.2" style="fill:#998b67"/><circle cx="111.24" cy="80.52" r="1.2" style="fill:#998b67"/><circle cx="107.35" cy="86.22" r="0.9" style="fill:#998b67"/><circle cx="107.95" cy="73.64" r="0.9" style="fill:#998b67"/><circle cx="82.78" cy="102.99" r="2.1" style="fill:#998b67"/><ellipse cx="98.66" cy="97.6" ry="0.9" style="fill:#998b67"/><circle cx="106.15" cy="109.58" r="0.9" style="fill:#998b67"/><circle cx="87.58" cy="94.6" r="0.9" style="fill:#998b67"/><circle cx="95.06" cy="102.69" r="0.6" style="fill:#998b67"/><circle cx="85.48" cy="111.68" r="1.2" style="fill:#998b67"/><circle cx="97.46" cy="114.07" r="1.2" style="fill:#998b67"/><circle cx="110.64" cy="100.3" r="0.6" style="fill:#998b67"/><circle cx="98.66" cy="94.3" r="1.8" style="fill:#998b67"/><circle cx="113.04" cy="91.91" r="0.6" style="fill:#998b67"/><circle cx="78.29" cy="114.07" r="1.2" style="fill:#998b67"/><circle cx="80.69" cy="91.91" r="1.2" style="fill:#998b67"/><circle cx="73.5" cy="95.5" r="1.2" style="fill:#998b67"/><circle cx="75.59" cy="104.79" r="1.5" style="fill:#998b67"/><circle cx="113.04" cy="67.94" r="1.8" style="fill:#998b67"/><circle cx="103.45" cy="66.15" r="0.6" style="fill:#998b67"/><circle cx="87.28" cy="64.95" r="0.6" style="fill:#998b67"/><circle cx="91.47" cy="72.74" r="0.6" style="fill:#998b67"/><circle cx="79.79" cy="64.05" r="0.3" style="fill:#998b67"/><ellipse cx="92.67" cy="94.3" rx="0.6" style="fill:#998b67"/><circle cx="101.65" cy="105.09" r="1.2" style="fill:#998b67"/></g></g></svg>