<svg xmlns="http://www.w3.org/2000/svg" viewBox="0 0 116.37 120"><title>sable-2</title><g id="Layer_2" data-name="Layer 2"><g id="Layer_1-2" data-name="Layer 1"><rect width="116.37" height="120" style="fill:#81a00d"/><path d="M27.54,20.56l-.13-.13-2-3.48a2.32,2.32,0,0,1,0-2.34l2.09-3.54-3.66,2.1a2.32,2.32,0,0,1-2.34,0l-3.36-2L18,11l.05.09L18,11.06l.13.13,2,3.48a2.32,2.32,0,0,1,0,2.34L18,20.56l3.66-2.1a2.32,2.32,0,0,1,2.34,0l3.36,2,.14.14-.05-.09Z" style="fill:#546609"/><path d="M60.87,55.31l-.13-.13-2-3.48a2.32,2.32,0,0,1,0-2.34l2.09-3.54-3.66,2.1a2.32,2.32,0,0,1-2.34,0l-3.36-2-.14-.14.05.09-.09-.05.13.13,2,3.48a2.32,2.32,0,0,1,0,2.34l-2.09,3.54L55,53.2a2.32,2.32,0,0,1,2.34,0l3.36,2,.14.14-.05-.09Z" style="fill:#546609"/><path d="M100.86,58l-.11-.11-1.63-2.84a1.89,1.89,0,0,1,0-1.91l1.7-2.88-3,1.71a1.89,1.89,0,0,1-1.91,0l-2.74-1.62-.11-.11,0,.07-.07,0,.11.11,1.63,2.84a1.89,1.89,0,0,1,0,1.91L93.09,58l3-1.71a1.89,1.89,0,0,1,1.91,0l2.74,1.62.11.11,0-.07Z" style="fill:#546609"/><path d="M84.45,43l-.11-.11L82.7,40.1a1.89,1.89,0,0,1,0-1.91l1.7-2.88-3,1.71a1.89,1.89,0,0,1-1.91,0L76.8,35.4l-.11-.11,0,.07-.07,0,.11.11,1.63,2.84a1.89,1.89,0,0,1,0,1.91L76.68,43l3-1.71a1.89,1.89,0,0,1,1.91,0L84.3,43l.11.11,0-.07Z" style="fill:#546609"/><path d="M105.46,111.66l-.11-.11-1.63-2.84a1.89,1.89,0,0,1,0-1.91l1.7-2.88-3,1.71a1.89,1.89,0,0,1-1.91,0L97.81,104l-.11-.11,0,.07-.07,0,.11.11,1.63,2.84a1.89,1.89,0,0,1,0,1.91l-1.7,2.88,3-1.71a1.89,1.89,0,0,1,1.91,0l2.74,1.62.11.11,0-.07Z" style="fill:#546609"/><path d="M13.35,84.3l-.06-.06-1-1.66a1.11,1.11,0,0,1,0-1.12l1-1.69-1.74,1a1.11,1.11,0,0,1-1.12,0l-1.6-.95-.07-.07,0,0,0,0,.06.06,1,1.66a1.11,1.11,0,0,1,0,1.12l-1,1.69,1.74-1a1.11,1.11,0,0,1,1.12,0l1.6.95.07.07,0,0Z" style="fill:#546609"/><path d="M23,95.08,22.91,95l-1-1.66a1.11,1.11,0,0,1,0-1.12l1-1.69-1.74,1a1.11,1.11,0,0,1-1.12,0l-1.6-.95-.07-.07,0,0,0,0,.06.06,1,1.66a1.11,1.11,0,0,1,0,1.12l-1,1.69,1.74-1a1.11,1.11,0,0,1,1.12,0l1.6.95.07.07,0,0Z" style="fill:#546609"/><path d="M15.18,59.71l-.06-.06-1-1.66a1.11,1.11,0,0,1,0-1.12l1-1.69-1.74,1a1.11,1.11,0,0,1-1.12,0l-1.6-.95-.07-.07,0,0,0,0,.06.06,1,1.66a1.11,1.11,0,0,1,0,1.12l-1,1.69,1.74-1a1.11,1.11,0,0,1,1.12,0l1.6.95.07.07,0,0Z" style="fill:#546609"/><path d="M106.83,14.48l-.06-.06-1-1.66a1.11,1.11,0,0,1,0-1.12l1-1.69-1.74,1a1.11,1.11,0,0,1-1.12,0l-1.6-.95-.07-.07,0,0,0,0,.06.06,1,1.66a1.11,1.11,0,0,1,0,1.12l-1,1.69,1.74-1a1.11,1.11,0,0,1,1.12,0l1.6.95.07.07,0,0Z" style="fill:#546609"/><path d="M107.74,38.45l-.06-.06-1-1.66a1.11,1.11,0,0,1,0-1.12l1-1.69-1.74,1a1.11,1.11,0,0,1-1.12,0l-1.6-.95-.07-.07,0,0,0,0,.06.06,1,1.66a1.11,1.11,0,0,1,0,1.12l-1,1.69,1.74-1a1.11,1.11,0,0,1,1.12,0l1.6.95.07.07,0,0Z" style="fill:#546609"/><path d="M68.68,113.71l-.15,0-3-1.33a1.89,1.89,0,0,1-1.12-1.55l-.33-3.33-1.39,3.14a1.89,1.89,0,0,1-1.55,1.12l-3.17.31-.16,0,.08,0h-.08l.15,0,3,1.33A1.89,1.89,0,0,1,62.09,115l.33,3.33,1.39-3.14A1.89,1.89,0,0,1,65.35,114l3.17-.31.16,0-.08,0Z" style="fill:#546609"/><path d="M20.69,110.46l-.11-.11-1.63-2.84a1.89,1.89,0,0,1,0-1.91l1.7-2.88-3,1.71a1.89,1.89,0,0,1-1.91,0L13,102.81l-.11-.11,0,.07-.07,0,.11.11,1.63,2.84a1.89,1.89,0,0,1,0,1.91l-1.7,2.88,3-1.71a1.89,1.89,0,0,1,1.91,0l2.74,1.62.11.11,0-.07Z" style="fill:#546609"/><path d="M35.3,86.88l-.08-.17-.76-3.95a2.32,2.32,0,0,1,.78-2.21l3.13-2.66-4.14.8A2.32,2.32,0,0,1,32,77.91l-2.53-3-.09-.18,0,.1-.07-.08.08.17.76,3.95a2.32,2.32,0,0,1-.78,2.21l-3.13,2.66,4.14-.8a2.32,2.32,0,0,1,2.21.78l2.53,3,.09.18,0-.1Z" style="fill:#546609"/><path d="M62.56,99.33l0-.18,2-3.47a2.32,2.32,0,0,1,2-1.15l4.11.05-3.64-2.13a2.32,2.32,0,0,1-1.15-2l.05-3.9.05-.19L66,86.4v-.1l0,.18L64,90a2.32,2.32,0,0,1-2,1.15l-4.11-.05,3.64,2.13a2.32,2.32,0,0,1,1.15,2l-.05,3.9-.05.19.05-.09Z" style="fill:#546609"/><path d="M98.73,22.5l-.19,0-3.6-1.79a2.32,2.32,0,0,1-1.29-2l-.22-4.1-1.87,3.78a2.32,2.32,0,0,1-2,1.29l-3.9.21-.2,0,.09,0h-.1l.19,0,3.6,1.79a2.32,2.32,0,0,1,1.29,2l.22,4.1L92.66,24a2.32,2.32,0,0,1,2-1.29l3.9-.21.2,0-.09,0Z" style="fill:#546609"/><path d="M88.73,105.5l-.19,0-3.6-1.79a2.32,2.32,0,0,1-1.29-2l-.22-4.1-1.87,3.78a2.32,2.32,0,0,1-2,1.29l-3.9.21-.2,0,.09,0h-.1l.19,0,3.6,1.79a2.32,2.32,0,0,1,1.29,2l.22,4.1L82.66,107a2.32,2.32,0,0,1,2-1.29l3.9-.21.2,0-.09,0Z" style="fill:#546609"/><path d="M47.28,32.09l-.19,0-3.6-1.79a2.32,2.32,0,0,1-1.29-2L42,24.2,40.1,28a2.32,2.32,0,0,1-2,1.29l-3.9.21-.2,0,.09,0H34l.19,0,3.6,1.79a2.32,2.32,0,0,1,1.29,2l.22,4.1,1.87-3.78a2.32,2.32,0,0,1,2-1.29l3.9-.21.2,0-.09,0Z" style="fill:#546609"/><path d="M38.37,63.54l-.27-.27-4-6.88a4.59,4.59,0,0,1,0-4.63l4.13-7-7.22,4.16a4.59,4.59,0,0,1-4.63,0L19.81,45l-.28-.28.1.17-.17-.1.27.27,4,6.88a4.59,4.59,0,0,1,0,4.63l-4.13,7,7.22-4.16a4.59,4.59,0,0,1,4.63,0L38,63.33l.28.28-.1-.17Z" style="fill:#546609"/><path d="M111,95l-.27-.27-4-6.88a4.59,4.59,0,0,1,0-4.63l4.13-7-7.22,4.16a4.59,4.59,0,0,1-4.63,0l-6.64-3.92-.28-.28.1.17-.17-.1.27.27,4,6.88a4.59,4.59,0,0,1,0,4.63l-4.13,7,7.22-4.16a4.59,4.59,0,0,1,4.63,0l6.64,3.92.28.28-.1-.17Z" style="fill:#546609"/><path d="M88.81,68.62h-.38l-7.6-2.31a4.59,4.59,0,0,1-3.15-3.39L75.91,55l-2.42,8a4.59,4.59,0,0,1-3.39,3.15l-7.53,1.68h-.39l.19.06-.19,0h.38l7.6,2.31a4.59,4.59,0,0,1,3.15,3.39l1.77,7.92,2.42-8a4.59,4.59,0,0,1,3.39-3.15l7.53-1.68h.39l-.19-.06Z" style="fill:#546609"/><path d="M56.09,101.57h-.38l-7.6-2.31A4.59,4.59,0,0,1,45,95.86l-1.77-7.92-2.42,8a4.59,4.59,0,0,1-3.39,3.15l-7.53,1.68h-.39l.19.06-.19,0h.38l7.6,2.31a4.59,4.59,0,0,1,3.15,3.39l1.77,7.92,2.42-8a4.59,4.59,0,0,1,3.39-3.15l7.53-1.68h.39l-.19-.06Z" style="fill:#546609"/><path d="M76.57,18h-.38l-7.6-2.31a4.59,4.59,0,0,1-3.15-3.39L63.67,4.34l-2.42,8a4.59,4.59,0,0,1-3.39,3.15l-7.53,1.68h-.39l.19.06-.19,0h.38l7.6,2.31a4.59,4.59,0,0,1,3.15,3.39l1.77,7.92,2.42-8a4.59,4.59,0,0,1,3.39-3.15l7.53-1.68h.39L76.37,18Z" style="fill:#546609"/></g></g></svg>