<svg xmlns="http://www.w3.org/2000/svg" viewBox="0 0 38.7 38.65"><title>Asset 9</title><g id="Layer_2" data-name="Layer 2"><g id="Layer_2-2" data-name="Layer 2"><rect x="21.11" y="7.61" width="3.93" height="16.02" transform="translate(17.81 -11.74) rotate(45)" style="fill:#4c3c25"/><path d="M18.5,22.38l-1.09-1.09L25.6,13.1c.88-.86.45-1.66-.32-2.46l2.48,2.48Z" style="fill:#33281a"/><path d="M19,30.63,15.87,27.5a.74.74,0,0,1,0-1l3.94-4.23a.37.37,0,0,0,0-.53l-2.86-2.86a.37.37,0,0,0-.53,0L12.18,22.8a.74.74,0,0,1-1,0L8,19.65a2,2,0,0,0-3,0c-5.21,6.1-6.61,13.43-3,17s10.92,2.18,17-3A2,2,0,0,0,19,30.63Z" style="fill:#b4bbcc"/><path d="M15.27,26.9l-1.43-1.43a.6.6,0,0,1,0-.85l4.43-4.43,1.5,1.5-4.47,4.73A.36.36,0,0,0,15.27,26.9Z" style="fill:#888e99"/><rect x="25.31" y="9.53" width="4.79" height="2.93" transform="translate(15.89 -16.37) rotate(45)" style="fill:#4c3c25"/><path d="M27.76,13.12,26.67,12l1-1c.88-.86.45-1.66-.32-2.46l2.48,2.48Z" style="fill:#33281a"/><path d="M28.8.3,24.67,4.44a1,1,0,0,0,0,1.45L32.81,14a1,1,0,0,0,1.45,0L38.4,9.89a1,1,0,0,0,0-1.45L30.26.3A1,1,0,0,0,28.8.3Zm5.26,12.3-8-8,2.42-2.42,8,8Z" style="fill:#4c3c25"/><path d="M18.54,32.23a1.1,1.1,0,0,0-.34-.81l-4.3-4.3c-1.73,1.18-3.45,2.28-5.15,3.23a.33.33,0,0,1-.45-.45c1-1.7,2.05-3.42,3.23-5.15l-4.3-4.3a1.1,1.1,0,0,0-.81-.34c-.16,0,5.18,7-3.63,15.76,3.12,3.12,9.79,1.8,15.51-3.08A.74.74,0,0,0,18.54,32.23Z" style="fill:#888e99"/><path d="M28.08,5.21H37.8a.76.76,0,0,1,.76.76v.41a0,0,0,0,1,0,0H27.32a0,0,0,0,1,0,0V6A.76.76,0,0,1,28.08,5.21Z" transform="translate(13.75 -21.59) rotate(45)" style="fill:#33281a"/></g></g></svg>